<svg xmlns="http://www.w3.org/2000/svg" viewBox="0 0 16 16" width="64" height="64" shape-rendering="crispEdges">
  <!-- Pixel art Hatsune Miku 16x16 -->
  <!-- Hair top -->
  <rect x="5" y="0" width="1" height="1" fill="#39c5bb"/>
  <rect x="6" y="0" width="4" height="1" fill="#2cb9af"/>
  <rect x="10" y="0" width="1" height="1" fill="#39c5bb"/>
  <!-- Hair row 1 -->
  <rect x="4" y="1" width="1" height="1" fill="#39c5bb"/>
  <rect x="5" y="1" width="6" height="1" fill="#2cb9af"/>
  <rect x="11" y="1" width="1" height="1" fill="#39c5bb"/>
  <!-- Hair row 2 -->
  <rect x="3" y="2" width="1" height="1" fill="#39c5bb"/>
  <rect x="4" y="2" width="8" height="1" fill="#2cb9af"/>
  <rect x="12" y="2" width="1" height="1" fill="#39c5bb"/>
  <!-- Hair + bangs row 3 -->
  <rect x="3" y="3" width="1" height="1" fill="#39c5bb"/>
  <rect x="4" y="3" width="2" height="1" fill="#1fa89e"/>
  <rect x="6" y="3" width="4" height="1" fill="#2cb9af"/>
  <rect x="10" y="3" width="2" height="1" fill="#1fa89e"/>
  <rect x="12" y="3" width="1" height="1" fill="#39c5bb"/>
  <!-- Face row 4 (forehead) -->
  <rect x="2" y="4" width="1" height="1" fill="#39c5bb"/>
  <rect x="3" y="4" width="1" height="1" fill="#1fa89e"/>
  <rect x="4" y="4" width="1" height="1" fill="#39c5bb"/>
  <rect x="5" y="4" width="6" height="1" fill="#fce4d6"/>
  <rect x="11" y="4" width="1" height="1" fill="#39c5bb"/>
  <rect x="12" y="4" width="1" height="1" fill="#1fa89e"/>
  <rect x="13" y="4" width="1" height="1" fill="#39c5bb"/>
  <!-- Face row 5 (eyes) -->
  <rect x="2" y="5" width="1" height="1" fill="#39c5bb"/>
  <rect x="3" y="5" width="1" height="1" fill="#1fa89e"/>
  <rect x="4" y="5" width="1" height="1" fill="#fce4d6"/>
  <rect x="5" y="5" width="2" height="1" fill="#39c5bb"/>
  <rect x="7" y="5" width="2" height="1" fill="#fce4d6"/>
  <rect x="9" y="5" width="2" height="1" fill="#39c5bb"/>
  <rect x="11" y="5" width="1" height="1" fill="#fce4d6"/>
  <rect x="12" y="5" width="1" height="1" fill="#1fa89e"/>
  <rect x="13" y="5" width="1" height="1" fill="#39c5bb"/>
  <!-- Face row 6 (cheeks) -->
  <rect x="2" y="6" width="1" height="1" fill="#39c5bb"/>
  <rect x="3" y="6" width="1" height="1" fill="#1fa89e"/>
  <rect x="4" y="6" width="8" height="1" fill="#fce4d6"/>
  <rect x="12" y="6" width="1" height="1" fill="#1fa89e"/>
  <rect x="13" y="6" width="1" height="1" fill="#39c5bb"/>
  <!-- Face row 7 (mouth) -->
  <rect x="2" y="7" width="1" height="1" fill="#39c5bb"/>
  <rect x="3" y="7" width="1" height="1" fill="#1fa89e"/>
  <rect x="4" y="7" width="3" height="1" fill="#fce4d6"/>
  <rect x="7" y="7" width="2" height="1" fill="#e8a0a0"/>
  <rect x="9" y="7" width="3" height="1" fill="#fce4d6"/>
  <rect x="12" y="7" width="1" height="1" fill="#1fa89e"/>
  <rect x="13" y="7" width="1" height="1" fill="#39c5bb"/>
  <!-- Neck + twin tails start row 8 -->
  <rect x="1" y="8" width="1" height="1" fill="#39c5bb"/>
  <rect x="2" y="8" width="1" height="1" fill="#2cb9af"/>
  <rect x="3" y="8" width="1" height="1" fill="#39c5bb"/>
  <rect x="6" y="8" width="1" height="1" fill="#fce4d6"/>
  <rect x="7" y="8" width="2" height="1" fill="#39c5bb"/>
  <rect x="9" y="8" width="1" height="1" fill="#fce4d6"/>
  <rect x="12" y="8" width="1" height="1" fill="#39c5bb"/>
  <rect x="13" y="8" width="1" height="1" fill="#2cb9af"/>
  <rect x="14" y="8" width="1" height="1" fill="#39c5bb"/>
  <!-- Body row 9 -->
  <rect x="0" y="9" width="1" height="1" fill="#39c5bb"/>
  <rect x="1" y="9" width="1" height="1" fill="#2cb9af"/>
  <rect x="2" y="9" width="1" height="1" fill="#39c5bb"/>
  <rect x="5" y="9" width="6" height="1" fill="#444"/>
  <rect x="13" y="9" width="1" height="1" fill="#39c5bb"/>
  <rect x="14" y="9" width="1" height="1" fill="#2cb9af"/>
  <rect x="15" y="9" width="1" height="1" fill="#39c5bb"/>
  <!-- Body row 10 -->
  <rect x="0" y="10" width="1" height="1" fill="#2cb9af"/>
  <rect x="1" y="10" width="1" height="1" fill="#39c5bb"/>
  <rect x="5" y="10" width="1" height="1" fill="#555"/>
  <rect x="6" y="10" width="1" height="1" fill="#39c5bb"/>
  <rect x="7" y="10" width="2" height="1" fill="#555"/>
  <rect x="9" y="10" width="1" height="1" fill="#39c5bb"/>
  <rect x="10" y="10" width="1" height="1" fill="#555"/>
  <rect x="14" y="10" width="1" height="1" fill="#39c5bb"/>
  <rect x="15" y="10" width="1" height="1" fill="#2cb9af"/>
  <!-- Tail + skirt row 11 -->
  <rect x="0" y="11" width="1" height="1" fill="#2cb9af"/>
  <rect x="1" y="11" width="1" height="1" fill="#39c5bb"/>
  <rect x="5" y="11" width="6" height="1" fill="#444"/>
  <rect x="14" y="11" width="1" height="1" fill="#39c5bb"/>
  <rect x="15" y="11" width="1" height="1" fill="#2cb9af"/>
  <!-- Tail + legs row 12 -->
  <rect x="0" y="12" width="1" height="1" fill="#39c5bb"/>
  <rect x="1" y="12" width="1" height="1" fill="#2cb9af"/>
  <rect x="6" y="12" width="1" height="1" fill="#333"/>
  <rect x="7" y="12" width="2" height="1" fill="#39c5bb"/>
  <rect x="9" y="12" width="1" height="1" fill="#333"/>
  <rect x="14" y="12" width="1" height="1" fill="#2cb9af"/>
  <rect x="15" y="12" width="1" height="1" fill="#39c5bb"/>
  <!-- Tail row 13 -->
  <rect x="1" y="13" width="1" height="1" fill="#39c5bb"/>
  <rect x="2" y="13" width="1" height="1" fill="#2cb9af"/>
  <rect x="6" y="13" width="1" height="1" fill="#333"/>
  <rect x="9" y="13" width="1" height="1" fill="#333"/>
  <rect x="13" y="13" width="1" height="1" fill="#2cb9af"/>
  <rect x="14" y="13" width="1" height="1" fill="#39c5bb"/>
  <!-- Tail row 14 -->
  <rect x="1" y="14" width="1" height="1" fill="#2cb9af"/>
  <rect x="2" y="14" width="1" height="1" fill="#39c5bb"/>
  <rect x="6" y="14" width="2" height="1" fill="#39c5bb"/>
  <rect x="9" y="14" width="2" height="1" fill="#39c5bb"/>
  <rect x="13" y="14" width="1" height="1" fill="#39c5bb"/>
  <rect x="14" y="14" width="1" height="1" fill="#2cb9af"/>
  <!-- Feet row 15 -->
  <rect x="2" y="15" width="1" height="1" fill="#2cb9af"/>
  <rect x="6" y="15" width="2" height="1" fill="#222"/>
  <rect x="9" y="15" width="2" height="1" fill="#222"/>
  <rect x="13" y="15" width="1" height="1" fill="#2cb9af"/>
</svg>
